<svg xmlns="http://www.w3.org/2000/svg" width="1080" height="1350" viewBox="0 0 1080 1350"><defs><filter id="p"><feTurbulence baseFrequency=".02" numOctaves="2" seed="4"/><feColorMatrix values="1 0 0 0 0 0 1 0 0 0 0 0 1 0 0 0 0 0 .1 0"/><feBlend in="SourceGraphic" mode="multiply"/></filter></defs><rect width="1080" height="1350" fill="#f5efe5" filter="url(#p)"/><rect x="28" y="28" width="1024" height="1294" fill="none" stroke="#202020" stroke-width="2"/><text x="70" y="75" font-family="Helvetica Neue,sans-serif" font-size="20">O JARVIS OS</text><text x="970" y="75" font-family="Helvetica Neue,sans-serif" font-size="20">02</text><path d="M70 92H1010" stroke="#222"/><text x="92" y="265" font-family="Georgia,serif" font-size="168" fill="#171717">O que</text><text x="90" y="425" font-family="Georgia,serif" font-size="168" fill="#2867b8">é isso?</text><path d="M100 465q300-18 650 0" stroke="#171717" stroke-width="8" fill="none"/><text x="140" y="595" font-family="Helvetica Neue,sans-serif" font-size="39">Você fala. O JARVIS roteia o trabalho.</text><text x="140" y="670" font-family="Helvetica Neue,sans-serif" font-size="38">Claude Code é o motor. Obsidian é a memória.</text><text x="140" y="745" font-family="Helvetica Neue,sans-serif" font-size="38">Construído para rodar com qualquer modelo local.</text><text x="140" y="820" font-family="Helvetica Neue,sans-serif" font-size="38">Modular até o último detalhe.</text><g transform="translate(680 210) rotate(6)"><path d="M0 0h270l35 45-20 250-280 18-30-45z" fill="#e9ddc7"/><text x="32" y="92" font-family="cursive" font-size="30">UMA VOZ.</text><text x="32" y="135" font-family="cursive" font-size="30">TODO FLUXO.</text><text x="32" y="178" font-family="cursive" font-size="30">ZERO ABAS.</text><path d="M30 198h220" stroke="#2867b8" stroke-width="4"/></g><g transform="translate(120 1010)"><rect width="840" height="170" rx="8" fill="#e8dfd2" stroke="#222" stroke-width="2"/><g font-family="Helvetica Neue,sans-serif" font-size="27" text-anchor="middle"><text x="105" y="75">FALAR</text><text x="315" y="75">ROTEAR</text><text x="525" y="75">EXECUTAR</text><text x="735" y="75">LEMBRAR</text></g><g stroke="#222" stroke-width="2"><path d="M210 30v110M420 30v110M630 30v110"/></g><text x="100" y="125" font-family="cursive" font-size="26" text-anchor="middle">🎙</text><text x="315" y="125" font-family="cursive" font-size="26" text-anchor="middle">↗</text><text x="525" y="125" font-family="cursive" font-size="26" text-anchor="middle">⚙</text><text x="735" y="125" font-family="cursive" font-size="26" text-anchor="middle">▤</text></g><text x="75" y="1280" font-family="monospace" font-size="18">MENTALIDADE: FALE. ROTEIE. LEMBRE. REPITA.</text></svg>
