<svg xmlns="http://www.w3.org/2000/svg" viewBox="0 0 560 150" fill="currentColor"><svg x="8" y="15" width="120" height="120" viewBox="0 0 120 120"><path fill-rule="evenodd" d="M28 64 C40 36 74 34 104 42 C92 74 56 86 28 64 Z M62 42 C72 53 72 67 62 79 C52 67 52 53 62 42 Z M34 67 C50 81 72 79 86 66 C72 75 50 76 34 67 Z"/></svg><svg x="150" y="49" width="372" height="52" viewBox="0 0 7240 1565" preserveAspectRatio="xMinYMid meet"><g transform="translate(0,1565) scale(1,-1) translate(0,37)">
    <path transform="translate(-79,0)" d="M709 1240Q709 1270 717 1279Q725 1288 755 1288H913Q944 1288 954 1296Q963 1305 963 1338V1450Q963 1481 955 1490Q947 1500 914 1500H124Q93 1500 86 1492Q79 1483 79 1451V1331Q79 1302 89 1295Q99 1288 127 1288H273Q302 1288 308 1278Q314 1268 314 1239V260Q314 228 301 220Q289 212 261 212H132Q101 212 90 205Q79 198 79 169V50Q79 19 87 9Q96 0 126 0H916Q946 0 954 8Q963 15 963 45V179Q963 201 954 207Q944 212 922 212H758Q728 212 718 219Q709 226 709 256Z"/>
    <path transform="translate(987,0)" d="M1807 207Q1821 230 1818 244Q1815 257 1791 274L1702 336Q1680 352 1670 350Q1660 348 1647 326Q1627 294 1603 274Q1578 255 1553 255Q1517 255 1503 279Q1488 303 1482 343Q1477 384 1472 433Q1467 483 1452 535Q1437 587 1404 634Q1370 681 1305 716Q1268 737 1275 749Q1282 762 1317 775Q1446 821 1499 904Q1552 986 1552 1107Q1552 1225 1488 1313Q1425 1402 1288 1451Q1152 1500 935 1500H97Q73 1500 65 1494Q57 1487 57 1463V1323Q57 1294 64 1283Q70 1273 100 1273H224Q256 1273 266 1265Q277 1257 277 1223V277Q277 244 266 235Q256 227 222 227H97Q72 227 64 220Q57 212 57 186V36Q57 13 65 6Q73 0 96 0H839Q876 0 884 12Q892 23 892 60V184Q892 211 883 219Q875 227 850 227H706Q683 227 677 235Q672 243 672 266V590Q672 620 677 629Q682 639 712 639H840Q925 639 971 602Q1016 565 1038 506Q1059 446 1071 374Q1082 302 1097 230Q1111 158 1143 99Q1175 39 1238 2Q1302 -35 1411 -35Q1560 -35 1653 33Q1745 101 1807 207ZM722 861Q687 861 680 867Q672 872 672 908V1225Q672 1256 678 1264Q685 1273 715 1273H935Q996 1273 1044 1247Q1092 1220 1119 1173Q1147 1126 1147 1063Q1147 1001 1119 956Q1092 910 1044 886Q996 861 935 861Z"/>
    <path transform="translate(2817,0)" d="M915 227H717Q689 227 680 238Q672 249 672 278V615Q672 639 682 650Q692 661 715 661H915Q987 661 1042 639Q1098 617 1130 572Q1162 526 1162 457Q1162 387 1136 335Q1111 284 1056 256Q1001 227 915 227ZM727 889Q691 889 682 898Q672 908 672 942V1237Q672 1261 683 1267Q695 1273 718 1273H881Q953 1273 1004 1256Q1054 1239 1081 1198Q1107 1158 1107 1088Q1107 1018 1078 974Q1048 930 997 910Q946 889 881 889ZM950 0Q1169 0 1310 40Q1452 79 1519 171Q1587 263 1587 420Q1587 559 1500 643Q1413 727 1254 762Q1224 768 1224 781Q1224 794 1250 802Q1378 840 1445 920Q1512 999 1512 1125Q1512 1262 1446 1344Q1379 1427 1242 1463Q1105 1500 895 1500H100Q74 1500 66 1490Q57 1481 57 1453V1313Q57 1287 64 1280Q72 1273 99 1273H235Q261 1273 269 1262Q277 1252 277 1225V281Q277 250 269 239Q261 227 232 227H92Q73 227 65 222Q57 217 57 196V57Q57 25 64 13Q71 0 102 0Z"/>
    <path transform="translate(4486,0)" d="M709 1240Q709 1270 717 1279Q725 1288 755 1288H913Q944 1288 954 1296Q963 1305 963 1338V1450Q963 1481 955 1490Q947 1500 914 1500H124Q93 1500 86 1492Q79 1483 79 1451V1331Q79 1302 89 1295Q99 1288 127 1288H273Q302 1288 308 1278Q314 1268 314 1239V260Q314 228 301 220Q289 212 261 212H132Q101 212 90 205Q79 198 79 169V50Q79 19 87 9Q96 0 126 0H916Q946 0 954 8Q963 15 963 45V179Q963 201 954 207Q944 212 922 212H758Q728 212 718 219Q709 226 709 256Z"/>
    <path transform="translate(5552,0)" d="M1127 1025Q1133 990 1138 978Q1144 966 1187 966H1278Q1311 966 1320 974Q1329 982 1329 1013V1457Q1329 1483 1320 1492Q1311 1500 1286 1500H1157Q1135 1500 1130 1495Q1125 1489 1117 1477L1091 1427Q1072 1394 1057 1393Q1043 1393 1017 1413Q952 1464 862 1496Q772 1527 663 1527Q565 1527 470 1502Q375 1476 299 1421Q223 1366 177 1280Q131 1194 131 1072Q131 949 179 869Q226 789 303 738Q381 688 475 657Q568 627 661 603Q754 580 832 553Q910 525 957 483Q1004 440 1004 370Q1004 316 973 273Q941 230 876 206Q811 182 712 182Q593 182 503 230Q413 278 359 356Q305 434 294 524Q291 551 288 560Q285 569 254 569H136Q107 569 100 560Q93 551 93 522V32Q93 6 105 -2Q116 -10 143 -10H243Q271 -10 284 -5Q296 -1 306 17L327 63Q347 99 358 110Q369 120 398 93Q460 37 553 0Q647 -37 776 -37Q954 -37 1091 11Q1228 59 1305 166Q1382 273 1382 449Q1382 575 1334 658Q1287 742 1208 796Q1130 850 1036 884Q942 918 849 943Q755 968 677 995Q598 1021 551 1060Q503 1098 503 1160Q503 1225 563 1267Q622 1308 741 1308Q826 1308 908 1278Q991 1248 1051 1185Q1111 1122 1127 1025Z"/>
  </g><path d="M7115 1150 C7172 1245 7172 1405 7115 1500 C7058 1405 7058 1245 7115 1150 Z"/></svg></svg>