<svg xmlns="http://www.w3.org/2000/svg" viewBox="0 0 560 150" fill="currentColor"><svg x="8" y="15" width="120" height="120" viewBox="0 0 120 120"><path fill-rule="evenodd" d="M28 64 C40 36 74 34 104 42 C92 74 56 86 28 64 Z M62 42 C72 53 72 67 62 79 C52 67 52 53 62 42 Z M34 67 C50 81 72 79 86 66 C72 75 50 76 34 67 Z"/></svg><svg x="150" y="49" width="372" height="52" viewBox="0 0 7240 1565" preserveAspectRatio="xMinYMid meet"><g transform="translate(0,1564.6) scale(1,-1) translate(0,37.3)">
    <path transform="translate(-79.0,0)" d="M708.6184692382812 1239.808837890625Q708.6184692382812 1269.9328002929688 716.7164611816406 1278.7267761230469Q724.814453125 1287.520751953125 755.4024047851562 1287.520751953125H913.2064208984375Q943.9183349609375 1287.520751953125 953.5883483886719 1296.2527465820312Q963.2583618164062 1304.9847412109375 963.2583618164062 1338.3046875V1449.8961181640625Q963.2583618164062 1480.9480590820312 954.9283752441406 1490.4740295410156Q946.598388671875 1500 914.0824584960938 1500H123.65997314453125Q92.7520751953125 1500 85.88607788085938 1491.5100402832031Q79.02008056640625 1483.0200805664062 79.02008056640625 1451.3081665039062V1330.6966552734375Q79.02008056640625 1302.2527465820312 89.08206176757812 1294.8867492675781Q99.14404296875 1287.520751953125 126.927978515625 1287.520751953125H272.6800537109375Q302.26800537109375 1287.520751953125 307.9639892578125 1277.5927734375Q313.65997314453125 1267.664794921875 313.65997314453125 1238.880859375V260.28326416015625Q313.65997314453125 228.479248046875 301.44390869140625 220.479248046875Q289.22784423828125 212.479248046875 261.0318603515625 212.479248046875H131.6080322265625Q101.41204833984375 212.479248046875 90.216064453125 205.38125610351562Q79.02008056640625 198.28326416015625 79.02008056640625 169.10736083984375V49.56787109375Q79.02008056640625 18.85595703125 87.42208862304688 9.427978515625Q95.8240966796875 0 126.34002685546875 0H915.9384155273438Q945.7223510742188 0 954.4903564453125 7.73199462890625Q963.2583618164062 15.4639892578125 963.2583618164062 45.1759033203125V179.0152587890625Q963.2583618164062 201.06719970703125 953.7684020996094 206.77322387695312Q944.2784423828125 212.479248046875 922.2265014648438 212.479248046875H758.3303833007812Q728.2784423828125 212.479248046875 718.4484558105469 219.41726684570312Q708.6184692382812 226.35528564453125 708.6184692382812 256.479248046875Z"/>
    <path transform="translate(987.0,0)" d="M1806.67041015625 206.83587646484375Q1820.9183349609375 230.08380126953125 1817.9443054199219 243.50173950195312Q1814.9702758789062 256.919677734375 1791.1863403320312 273.631591796875L1702.390625 336.479248046875Q1680.0706787109375 352.45916748046875 1670.1787109375 350.0831298828125Q1660.2867431640625 347.70709228515625 1646.5028076171875 326.191162109375Q1627.4307861328125 293.95501708984375 1602.5907592773438 274.4449768066406Q1577.750732421875 254.9349365234375 1553.4107055664062 254.9349365234375Q1517.4425659179688 254.9349365234375 1502.530517578125 278.7850036621094Q1487.6184692382812 302.63507080078125 1482.2884826660156 343.2271728515625Q1476.95849609375 383.81927490234375 1471.9685363769531 433.3493957519531Q1466.9785766601562 482.8795166015625 1452.2206115722656 534.775634765625Q1437.462646484375 586.6717529296875 1403.5966491699219 633.9598388671875Q1369.7306518554688 681.2479248046875 1305.24658203125 715.85595703125Q1267.8546142578125 736.5159301757812 1274.9425659179688 749.4439086914062Q1282.030517578125 762.3718872070312 1316.6184692382812 775.0318603515625Q1445.7105712890625 821.2278442382812 1498.6846008300781 903.5058898925781Q1551.6586303710938 985.783935546875 1551.6586303710938 1107.3199462890625Q1551.6586303710938 1224.639892578125 1488.250732421875 1313.0779113769531Q1424.8428344726562 1401.5159301757812 1288.4910278320312 1450.7579650878906Q1152.1392211914062 1500 934.5394897460938 1500H97.14404296875Q73.02008056640625 1500 64.860107421875 1493.7319946289062Q56.70013427734375 1487.4639892578125 56.70013427734375 1463.072021484375V1323.0048217773438Q56.70013427734375 1293.808837890625 63.530120849609375 1283.3448486328125Q70.360107421875 1272.880859375 100.02008056640625 1272.880859375H224.0401611328125Q256.0401611328125 1272.880859375 266.3701477050781 1264.880859375Q276.70013427734375 1256.880859375 276.70013427734375 1222.6848754882812V276.70709228515625Q276.70013427734375 243.77911376953125 266.3701477050781 235.44912719726562Q256.0401611328125 227.119140625 222.1121826171875 227.119140625H97.09210205078125Q71.70013427734375 227.119140625 64.20013427734375 219.6551513671875Q56.70013427734375 212.191162109375 56.70013427734375 185.53118896484375V36.3919677734375Q56.70013427734375 13 64.8961181640625 6.5Q73.09210205078125 0 96.48406982421875 0H838.894775390625Q876.462646484375 0 884.0606384277344 11.58795166015625Q891.6586303710938 23.1759033203125 891.6586303710938 60.47576904296875V183.7991943359375Q891.6586303710938 210.92315673828125 883.3646545410156 219.02114868164062Q875.0706787109375 227.119140625 849.6787109375 227.119140625H705.8026733398438Q682.53466796875 227.119140625 677.0966491699219 234.81512451171875Q671.6586303710938 242.5111083984375 671.6586303710938 265.5111083984375V589.6883544921875Q671.6586303710938 619.7603759765625 677.0606384277344 629.2603759765625Q682.462646484375 638.7603759765625 711.8026733398438 638.7603759765625H839.8995971679688Q925.0117797851562 638.7603759765625 970.6658630371094 602.0903625488281Q1016.3199462890625 565.4203491210938 1037.7219543457031 505.580322265625Q1059.1239624023438 445.74029541015625 1070.5779113769531 373.9002685546875Q1082.0318603515625 302.06024169921875 1096.7437744140625 230.22021484375Q1111.4556884765625 158.38018798828125 1143.3635864257812 98.5401611328125Q1175.271484375 38.70013427734375 1238.4473876953125 2.030120849609375Q1301.623291015625 -34.639892578125 1411.1392211914062 -34.639892578125Q1559.759033203125 -34.639892578125 1652.5128479003906 33.278045654296875Q1745.2666625976562 101.19598388671875 1806.67041015625 206.83587646484375ZM722.318603515625 861.2396240234375Q687.390625 861.2396240234375 679.5246276855469 866.8116455078125Q671.6586303710938 872.3836669921875 671.6586303710938 907.775634765625V1225.1488647460938Q671.6586303710938 1255.7568969726562 678.390625 1264.3188781738281Q685.1226196289062 1272.880859375 714.9986572265625 1272.880859375H934.5394897460938Q995.8995971679688 1272.880859375 1043.9037475585938 1246.6388244628906Q1091.9078979492188 1220.3967895507812 1119.3040161132812 1173.0986633300781Q1146.7001342773438 1125.800537109375 1146.7001342773438 1063.4002685546875Q1146.7001342773438 1001 1119.3040161132812 955.6658630371094Q1091.9078979492188 910.3317260742188 1043.9037475585938 885.7856750488281Q995.8995971679688 861.2396240234375 934.5394897460938 861.2396240234375Z"/>
    <path transform="translate(2817.0,0)" d="M915.2597045898438 227.119140625H716.9266357421875Q688.7306518554688 227.119140625 680.1946411132812 238.0111083984375Q671.6586303710938 248.903076171875 671.6586303710938 278.2950439453125V614.7603759765625Q671.6586303710938 639.2444458007812 681.9886169433594 650.3424377441406Q692.318603515625 661.4404296875 714.8026733398438 661.4404296875H915.2597045898438Q986.6198120117188 661.4404296875 1042.4179382324219 639.15234375Q1098.216064453125 616.8642578125 1130.1381530761719 571.5921020507812Q1162.0602416992188 526.3199462890625 1162.0602416992188 456.5997314453125Q1162.0602416992188 386.8795166015625 1136.360107421875 335.4473876953125Q1110.6599731445312 284.0152587890625 1055.9598388671875 255.56719970703125Q1001.2597045898438 227.119140625 915.2597045898438 227.119140625ZM726.5145874023438 888.5595703125Q691.390625 888.5595703125 681.5246276855469 898.0855407714844Q671.6586303710938 907.6115112304688 671.6586303710938 942.4674682617188V1237.3967895507812Q671.6586303710938 1260.9328002929688 683.3805847167969 1266.9068298339844Q695.1025390625 1272.880859375 718.3705444335938 1272.880859375H880.6198120117188Q952.9598388671875 1272.880859375 1003.5259704589844 1255.7267761230469Q1054.0921020507812 1238.5726928710938 1080.7562255859375 1198.1665344238281Q1107.4203491210938 1157.7603759765625 1107.4203491210938 1088.0401611328125Q1107.4203491210938 1018.3199462890625 1077.8282470703125 974.3878173828125Q1048.2361450195312 930.4556884765625 996.9380187988281 909.5076293945312Q945.639892578125 888.5595703125 880.6198120117188 888.5595703125ZM949.8995971679688 0Q1169.4591674804688 0 1310.4809875488281 39.572021484375Q1451.5028076171875 79.14404296875 1519.2607727050781 170.91204833984375Q1587.0187377929688 262.6800537109375 1587.0187377929688 420Q1587.0187377929688 558.6080322265625 1500.038818359375 642.8400268554688Q1413.0588989257812 727.072021484375 1254.0990600585938 761.6080322265625Q1224.3871459960938 768.072021484375 1224.119140625 781.1959838867188Q1223.8511352539062 794.3199462890625 1250.2431030273438 801.783935546875Q1378.3469848632812 840.3718872070312 1445.3629150390625 919.7018737792969Q1512.3788452148438 999.0318603515625 1512.3788452148438 1124.639892578125Q1512.3788452148438 1261.9598388671875 1445.6208801269531 1344.4338684082031Q1378.8629150390625 1426.9078979492188 1241.8410949707031 1463.4539489746094Q1104.8192749023438 1500 895.2597045898438 1500H99.94805908203125Q74.360107421875 1500 65.53012084960938 1490.3400268554688Q56.70013427734375 1480.6800537109375 56.70013427734375 1453.360107421875V1313.2728271484375Q56.70013427734375 1286.808837890625 64.33413696289062 1279.8448486328125Q71.9681396484375 1272.880859375 99.16412353515625 1272.880859375H234.62811279296875Q261.16412353515625 1272.880859375 268.93212890625 1262.2568969726562Q276.70013427734375 1251.6329345703125 276.70013427734375 1224.6329345703125V280.54296875Q276.70013427734375 250.2950439453125 269.0301208496094 238.70709228515625Q261.360107421875 227.119140625 231.576171875 227.119140625H92.23614501953125Q73.43212890625 227.119140625 65.06613159179688 221.98513793945312Q56.70013427734375 216.85113525390625 56.70013427734375 196.047119140625V56.8878173828125Q56.70013427734375 25.1038818359375 63.870147705078125 12.55194091796875Q71.0401611328125 0 102.09210205078125 0Z"/>
    <path transform="translate(4486.0,0)" d="M708.6184692382812 1239.808837890625Q708.6184692382812 1269.9328002929688 716.7164611816406 1278.7267761230469Q724.814453125 1287.520751953125 755.4024047851562 1287.520751953125H913.2064208984375Q943.9183349609375 1287.520751953125 953.5883483886719 1296.2527465820312Q963.2583618164062 1304.9847412109375 963.2583618164062 1338.3046875V1449.8961181640625Q963.2583618164062 1480.9480590820312 954.9283752441406 1490.4740295410156Q946.598388671875 1500 914.0824584960938 1500H123.65997314453125Q92.7520751953125 1500 85.88607788085938 1491.5100402832031Q79.02008056640625 1483.0200805664062 79.02008056640625 1451.3081665039062V1330.6966552734375Q79.02008056640625 1302.2527465820312 89.08206176757812 1294.8867492675781Q99.14404296875 1287.520751953125 126.927978515625 1287.520751953125H272.6800537109375Q302.26800537109375 1287.520751953125 307.9639892578125 1277.5927734375Q313.65997314453125 1267.664794921875 313.65997314453125 1238.880859375V260.28326416015625Q313.65997314453125 228.479248046875 301.44390869140625 220.479248046875Q289.22784423828125 212.479248046875 261.0318603515625 212.479248046875H131.6080322265625Q101.41204833984375 212.479248046875 90.216064453125 205.38125610351562Q79.02008056640625 198.28326416015625 79.02008056640625 169.10736083984375V49.56787109375Q79.02008056640625 18.85595703125 87.42208862304688 9.427978515625Q95.8240966796875 0 126.34002685546875 0H915.9384155273438Q945.7223510742188 0 954.4903564453125 7.73199462890625Q963.2583618164062 15.4639892578125 963.2583618164062 45.1759033203125V179.0152587890625Q963.2583618164062 201.06719970703125 953.7684020996094 206.77322387695312Q944.2784423828125 212.479248046875 922.2265014648438 212.479248046875H758.3303833007812Q728.2784423828125 212.479248046875 718.4484558105469 219.41726684570312Q708.6184692382812 226.35528564453125 708.6184692382812 256.479248046875Z"/>
    <path transform="translate(5552.0,0)" d="M1126.5796508789062 1025.0401611328125Q1132.9716186523438 989.792236328125 1138.2655944824219 977.936279296875Q1143.5595703125 966.080322265625 1186.6634521484375 966.080322265625H1278.2431030273438Q1311.1510009765625 966.080322265625 1320.114990234375 973.9722900390625Q1329.0789794921875 981.8642578125 1329.0789794921875 1013.3081665039062V1457.4840698242188Q1329.0789794921875 1483.3400268554688 1319.8210144042969 1491.6700134277344Q1310.5630493164062 1500 1286.4390869140625 1500H1156.5595703125Q1135.0436401367188 1500 1130.0796508789062 1494.7060241699219Q1125.1156616210938 1489.4120483398438 1117.4556884765625 1477.0200805664062L1090.84765625 1426.5159301757812Q1071.7957153320312 1393.6599731445312 1057.2337341308594 1393.1959838867188Q1042.6717529296875 1392.7319946289062 1016.8878173828125 1412.85595703125Q951.7638549804688 1464.1239624023438 861.6759033203125 1495.7219543457031Q771.5879516601562 1527.3199462890625 662.6800537109375 1527.3199462890625Q564.6800537109375 1527.3199462890625 469.9941101074219 1501.7219543457031Q375.30816650390625 1476.1239624023438 298.9262390136719 1421.0979919433594Q222.5443115234375 1366.072021484375 176.99237060546875 1279.9220886230469Q131.4404296875 1193.7721557617188 131.4404296875 1071.936279296875Q131.4404296875 949.00830078125 178.57443237304688 868.7863464355469Q225.70843505859375 788.5643920898438 303.4764404296875 738.4764404296875Q381.24444580078125 688.3884887695312 474.512451171875 657.4965209960938Q567.7804565429688 626.6045532226562 661.0484619140625 603.4705505371094Q754.3164672851562 580.3365478515625 832.08447265625 552.7904968261719Q909.8524780273438 525.2444458007812 956.9864807128906 482.84832763671875Q1004.1204833984375 440.45220947265625 1004.1204833984375 370Q1004.1204833984375 315.639892578125 972.5744323730469 272.99169921875Q941.0283813476562 230.343505859375 876.1942443847656 206.07135009765625Q811.360107421875 181.7991943359375 711.9598388671875 181.7991943359375Q592.7957153320312 181.7991943359375 502.7496643066406 229.75729370117188Q412.70361328125 277.71539306640625 358.93560791015625 355.7095031738281Q305.1676025390625 433.70361328125 293.97161865234375 523.5796508789062Q290.775634765625 550.8275756835938 287.8376159667969 559.6935729980469Q284.89959716796875 568.5595703125 253.919677734375 568.5595703125H135.792236328125Q107.4722900390625 568.5595703125 100.436279296875 559.9356079101562Q93.4002685546875 551.3116455078125 93.4002685546875 522.2597045898438V32.05194091796875Q93.4002685546875 5.65997314453125 104.56024169921875 -2.170013427734375Q115.72021484375 -10 143.1121826171875 -10H242.919677734375Q271.18768310546875 -10 283.8116455078125 -5.26800537109375Q296.43560791015625 -0.5360107421875 305.89959716796875 17.26800537109375L327.3836669921875 62.792236328125Q347.43560791015625 99.38018798828125 358.2655944824219 109.79812622070312Q369.0955810546875 120.216064453125 398.41552734375 92.8961181640625Q459.82757568359375 36.55609130859375 553.3016052246094 -0.381927490234375Q646.775634765625 -37.3199462890625 775.8795166015625 -37.3199462890625Q954.199462890625 -37.3199462890625 1090.9373474121094 10.8240966796875Q1227.6752319335938 58.9681396484375 1304.7171325683594 165.8240966796875Q1381.759033203125 272.6800537109375 1381.759033203125 449.27978515625Q1381.759033203125 574.6198120117188 1334.259033203125 658.4137878417969Q1286.759033203125 742.207763671875 1208.259033203125 796.063720703125Q1129.759033203125 849.919677734375 1036.1250305175781 884.0436401367188Q942.4910278320312 918.1676025390625 848.8570251464844 943.131591796875Q755.2230224609375 968.0955810546875 676.7230224609375 994.70361328125Q598.2230224609375 1021.3116455078125 550.7230224609375 1059.8057556152344Q503.2230224609375 1098.2998657226562 503.2230224609375 1159.7520751953125Q503.2230224609375 1224.9563598632812 562.6811218261719 1266.5785827636719Q622.1392211914062 1308.2008056640625 741.2396240234375 1308.2008056640625Q825.8157958984375 1308.2008056640625 908.2538146972656 1277.9026794433594Q990.6918334960938 1247.6045532226562 1050.6097717285156 1184.9664001464844Q1110.5277099609375 1122.3282470703125 1126.5796508789062 1025.0401611328125Z"/>
  </g><path d="M7115 1150 C7172 1245 7172 1405 7115 1500 C7058 1405 7058 1245 7115 1150 Z"/></svg></svg>